<?xml version="1.0" encoding="UTF-8"?>
<svg width="15px" height="13px" viewBox="0 0 15 13" version="1.1" xmlns="http://www.w3.org/2000/svg" xmlns:xlink="http://www.w3.org/1999/xlink">
    <!-- Generator: Sketch 64 (93537) - https://sketch.com -->
    <title>Path</title>
    <desc>Created with Sketch.</desc>
    <g id="Page-1" stroke="none" stroke-width="1" fill-rule="evenodd">
        <g id="Homepage" transform="translate(-772.000000, -3174.000000)" fill-rule="nonzero">
            <path d="M786.686093,3179.73904 L781.319032,3174.31432 C780.898051,3173.89258 780.21852,3173.89563 779.801263,3174.32113 C779.768294,3174.35476 779.737539,3174.39053 779.709165,3174.42822 C779.408288,3174.88183 779.473957,3175.48845 779.864785,3175.86555 L782.82694,3178.87038 C782.984405,3179.0297 783.165448,3179.1633 783.363562,3179.26632 L783.690902,3179.43988 L773.146275,3179.43988 C772.606332,3179.41693 772.128403,3179.79013 772.014002,3180.32398 C771.91912,3180.91535 772.316489,3181.47251 772.901609,3181.56842 C772.962985,3181.57848 773.025099,3181.58313 773.087246,3181.58231 L783.669437,3181.58231 L783.43869,3181.69079 C783.213543,3181.79707 783.008386,3181.94205 782.832306,3182.11928 L779.864785,3185.11868 C779.473957,3185.49578 779.408288,3186.1024 779.709165,3186.55601 C780.059344,3187.03938 780.730894,3187.14433 781.209158,3186.79039 C781.247795,3186.76178 781.28452,3186.73059 781.319032,3186.69703 L786.685254,3181.27315 C787.104591,3180.84975 787.10496,3180.16292 786.686093,3179.73904 Z" id="Path"></path>
        </g>
    </g>
</svg>
