<svg xmlns="http://www.w3.org/2000/svg" style="display:none">
    <symbol id="business" viewBox="0 0 512 512">
        <path d="M98.547 122h40c5.52 0 10-4.477 10-10V64c0-5.523-4.48-10-10-10h-40c-5.524 0-10 4.477-10 10v48c0 5.523 4.476 10 10 10zm10-48h20v28h-20zm0 0M178.547 122h40c5.52 0 10-4.477 10-10V64c0-5.523-4.48-10-10-10h-40c-5.524 0-10 4.477-10 10v48c0 5.523 4.476 10 10 10zm10-48h20v28h-20zm0 0M258.547 122h40c5.52 0 10-4.477 10-10V64c0-5.523-4.48-10-10-10h-40c-5.524 0-10 4.477-10 10v48c0 5.523 4.476 10 10 10zm10-48h20v28h-20zm0 0M88.547 200c0 5.523 4.476 10 10 10h40c5.52 0 10-4.477 10-10v-48c0-5.523-4.48-10-10-10h-40c-5.524 0-10 4.477-10 10zm20-38h20v28h-20zm0 0M168.547 200c0 5.523 4.476 10 10 10h40c5.52 0 10-4.477 10-10v-48c0-5.523-4.48-10-10-10h-40c-5.524 0-10 4.477-10 10zm20-38h20v28h-20zm0 0M88.547 288c0 5.523 4.476 10 10 10h40c5.52 0 10-4.477 10-10v-48c0-5.523-4.48-10-10-10h-40c-5.524 0-10 4.477-10 10zm20-38h20v28h-20zm0 0M168.547 288c0 5.523 4.476 10 10 10h40c5.52 0 10-4.477 10-10v-48c0-5.523-4.48-10-10-10h-40c-5.524 0-10 4.477-10 10zm20-38h20v28h-20zm0 0"/><path d="M448 452c-5.586 0-11.137.941-16.387 2.758-10.593-11.184-24.437-18.34-39.613-20.531v-43.555c12.879 9.898 28.844 15.574 45.465 15.574 41.097 0 74.535-33.437 74.535-74.535 0-26.09-13.883-50.352-35.926-63.754.488-3.918.735-7.879.735-11.832 0-52.277-42.532-94.809-94.809-94.809a94.453 94.453 0 00-26.55 3.79V10c0-5.523-4.477-10-10-10h-296c-5.52 0-10 4.477-10 10v182c0 5.523 4.48 10 10 10 5.523 0 10-4.477 10-10V20h276v153.555a95.542 95.542 0 00-26.907 22.699V152c0-5.523-4.477-10-10-10h-40c-5.52 0-10 4.477-10 10v48c0 5.523 4.48 10 10 10h40c.227 0 .45-.02.668-.035A94.39 94.39 0 00290.85 230h-32.308c-5.52 0-10 4.477-10 10v48c0 5.523 4.48 10 10 10h1.59c-4.985 9.793-7.844 20.703-8.106 32H116c-5.523 0-10 4.477-10 10v104H59.453V272c0-5.523-4.48-10-10-10-5.523 0-10 4.477-10 10v172H10c-5.523 0-10 4.477-10 10v48c0 5.523 4.477 10 10 10h478c5.52 0 10-4.477 10-10 0-27.57-22.43-50-50-50zM288.547 190h-20v-28h20zM266 375.113V444h-60v-94h48.277c2.32 9.164 6.356 17.648 11.723 25.113zm20 19.098c11.676 7.598 25.594 12.035 40.535 12.035 3 0 5.973-.203 8.918-.566V444H286zm69.453 6.113A75.467 75.467 0 00372 390.672v43.562a67.977 67.977 0 00-16.547 4.621zM382 181.316c41.25 0 74.809 33.559 74.809 74.809 0 5.117-.52 10.234-1.547 15.215a9.997 9.997 0 005.511 11.062c18.97 8.985 31.227 28.34 31.227 49.309 0 30.07-24.465 54.535-54.535 54.535-18.23 0-35.41-9.305-45.465-24.441v-26.72l36.844-36.843c3.906-3.906 3.906-10.238 0-14.144-3.906-3.903-10.235-3.903-14.14 0L392 306.8v-46c0-5.524-4.477-10-10-10-5.52 0-10 4.476-10 10v24.316l-17.063-17.062c-3.906-3.907-10.234-3.907-14.14 0s-3.906 10.238 0 14.144L372 313.402V361.805c-10.055 15.136-27.234 24.441-45.465 24.441-30.07 0-54.535-24.465-54.535-54.535 0-20.969 12.258-40.324 31.227-49.309a10.009 10.009 0 005.515-11.062 75.428 75.428 0 01-1.55-15.215c0-41.25 33.558-74.809 74.808-74.809zM268.547 250h18.848a96.419 96.419 0 00-.204 6.125c0 3.957.247 7.914.735 11.832A74.128 74.128 0 00274.922 278h-6.375zM126 350h60v94h-60zM20 464h305.04a68.036 68.036 0 00-10.802 28H20zm362 28h-47.465c4.625-21.96 24.149-38.5 47.465-38.5 15.398 0 29.543 7.074 38.805 19.406a10.004 10.004 0 0012.804 2.766A30.017 30.017 0 01448 472c13.035 0 24.16 8.36 28.285 20zm0 0"/><path d="M49.45 242c2.628 0 5.21-1.07 7.07-2.93 1.859-1.86 2.93-4.441 2.93-7.07s-1.071-5.21-2.93-7.07a10.08 10.08 0 00-7.07-2.93 10.08 10.08 0 00-7.071 2.93c-1.86 1.86-2.93 4.441-2.93 7.07s1.07 5.21 2.93 7.07a10.087 10.087 0 007.07 2.93zm0 0"/>
    </symbol>

    <symbol id="badminton" viewBox="0 0 512.023 512.023">
        <path d="M499.488 230.706l-90.048-20.16-9.568-84.352c-.832-7.424-6.656-13.28-14.08-14.08l-82.976-9.376-9.888-88.512c-.512-4.384-2.784-8.384-6.336-11.008-3.52-2.656-7.968-3.776-12.352-2.944l-90.496 16a16.019 16.019 0 00-12.416 10.656L82.016 294.227l-42.592 42.592-11.328 11.328C9.984 366.258 0 390.386 0 416.018c0 25.632 9.984 49.76 28.128 67.872C46.24 502.034 70.368 512.018 96 512.018s49.76-9.984 67.872-28.128l11.328-11.328 42.592-42.592 267.296-89.312a16.116 16.116 0 0010.624-12l16-79.168c1.696-8.511-3.712-16.864-12.224-18.784zm-203.68-96.607l73.696 8.352 8.384 73.728-201.024 144.96-26.016-26.016 144.96-201.024zm-97.152-88l64.352-11.36 8.704 78.08L127.936 312.21l-13.632-13.632 84.352-252.479zM50.752 461.266C38.656 449.17 32 433.107 32 416.018s6.656-33.152 18.752-45.248l90.496 90.496c-24.192 24.192-66.304 24.192-90.496 0zm113.12-22.624l-90.496-90.496L96 325.49l90.528 90.528-22.656 22.624zm302.272-125.376L213.44 397.714l-13.632-13.632 198.56-143.2 78.848 17.632-11.072 54.752z"/>
    </symbol>

    <symbol id="medal" viewBox="0 0 511.999 511.999">
        <path d="M321.356 63.796c-56.318-28.458-124.159-17.577-168.81 27.075-51.895 51.894-57.089 134.64-12.081 192.474a8.055 8.055 0 006.373 3.114 8.03 8.03 0 004.95-1.702 8.07 8.07 0 001.413-11.323c-40.019-51.422-35.394-125.002 10.757-171.153 39.71-39.712 100.038-49.39 150.122-24.083 3.976 2.012 8.83.414 10.84-3.563a8.067 8.067 0 00-3.564-10.839zM385.787 128.239a8.07 8.07 0 00-14.406 7.275c25.289 50.076 15.606 110.396-24.095 150.096-46.152 46.15-119.731 50.774-171.153 10.757a8.068 8.068 0 10-9.91 12.735c26.344 20.502 57.855 30.586 89.266 30.586 37.547 0 74.952-14.411 103.209-42.668 44.641-44.64 55.527-112.468 27.089-168.781zM364.94 97.508a147.944 147.944 0 00-12.88-12.88 8.066 8.066 0 00-11.388.703 8.065 8.065 0 00.7 11.388 132.458 132.458 0 0111.476 11.475 8.048 8.048 0 006.049 2.725 8.04 8.04 0 005.34-2.023 8.066 8.066 0 00.703-11.388z"/><path d="M446.066 208.41c5.38-8.827 5.38-19.791-.002-28.616l-10.615-17.407a11.358 11.358 0 01-1.521-7.67l3.164-20.103c1.613-10.245-2.596-20.398-10.982-26.499l-16.451-11.966a11.36 11.36 0 01-4.354-6.506l-4.791-19.799c-2.432-10.057-10.191-17.815-20.247-20.249l-19.8-4.792a11.355 11.355 0 01-6.506-4.354l-11.968-16.455c-6.1-8.386-16.254-12.597-26.496-10.983l-20.11 3.164a11.359 11.359 0 01-7.669-1.521l-17.41-10.618c-8.826-5.382-19.79-5.381-28.616 0l-17.408 10.615a11.358 11.358 0 01-7.67 1.521l-20.104-3.164c-10.242-1.612-20.397 2.597-26.497 10.983l-11.966 16.451a11.362 11.362 0 01-6.508 4.354l-19.799 4.791c-10.055 2.432-17.815 10.191-20.249 20.247l-4.792 19.8a11.35 11.35 0 01-4.354 6.506L85.89 108.108c-8.386 6.099-12.594 16.251-10.983 26.496l3.164 20.111a11.358 11.358 0 01-1.521 7.669l-10.617 17.411c-5.38 8.826-5.38 19.79.001 28.615l10.615 17.408a11.358 11.358 0 011.521 7.67l-3.164 20.104c-1.613 10.244 2.596 20.398 10.982 26.498l16.451 11.966a11.355 11.355 0 014.354 6.506l4.791 19.799c2.432 10.057 10.191 17.815 20.247 20.249l8.268 2.001-55.954 124.814a8.067 8.067 0 008.32 11.312l45.022-5.383 25.936 37.191a8.07 8.07 0 0013.981-1.314l57.145-127.479 7.241 4.415a27.444 27.444 0 0014.308 4.036c4.948 0 9.895-1.346 14.308-4.036l7.502-4.574 57.217 127.638a8.067 8.067 0 007.365 4.768 8.069 8.069 0 006.616-3.453l25.936-37.191 45.022 5.383a8.067 8.067 0 008.32-11.312l-55.983-124.883 7.957-1.925c10.055-2.432 17.815-10.191 20.249-20.247l4.792-19.8a11.355 11.355 0 014.354-6.506l16.455-11.968c8.386-6.099 12.594-16.251 10.983-26.496l-3.164-20.111a11.358 11.358 0 011.521-7.669l10.618-17.411zM168.408 487.627l-20.554-29.474a8.064 8.064 0 00-7.576-3.396l-35.679 4.266L155.578 345.3a11.284 11.284 0 012.457 2.455l11.968 16.455a27.734 27.734 0 003.808 4.242l-26.833 59.857a8.07 8.07 0 0014.724 6.601l26.738-59.644c2.631.361 5.34.355 8.059-.073l20.11-3.164a11.327 11.327 0 013.606.024l-51.807 115.574zm239.324-28.606l-35.68-4.264a8.064 8.064 0 00-7.576 3.396l-20.554 29.474-51.829-115.619a11.359 11.359 0 013.293.024l20.103 3.164c2.829.445 5.648.431 8.379.024l26.758 59.692a8.07 8.07 0 007.367 4.77 8.068 8.068 0 007.357-11.371l-26.935-60.085a27.771 27.771 0 003.571-4.013l11.966-16.451a11.327 11.327 0 012.716-2.645l51.064 113.904zm24.555-259.013l-10.617 17.411a27.52 27.52 0 00-3.684 18.578l3.164 20.11a11.3 11.3 0 01-4.534 10.938l-16.456 11.969a27.514 27.514 0 00-10.545 15.76l-4.792 19.8a11.303 11.303 0 01-8.359 8.359l-19.8 4.791a27.512 27.512 0 00-15.762 10.546l-11.966 16.451a11.293 11.293 0 01-10.939 4.533l-20.104-3.164a27.517 27.517 0 00-18.581 3.684l-17.407 10.615a11.307 11.307 0 01-11.812 0l-17.411-10.616a27.51 27.51 0 00-18.579-3.684l-20.111 3.164a11.297 11.297 0 01-10.938-4.534l-11.969-16.455a27.514 27.514 0 00-15.76-10.545l-19.8-4.792a11.303 11.303 0 01-8.359-8.359l-4.791-19.799a27.51 27.51 0 00-10.546-15.763l-16.45-11.967a11.297 11.297 0 01-4.533-10.939l3.164-20.104a27.515 27.515 0 00-3.684-18.58l-10.615-17.409a11.303 11.303 0 010-11.812l10.617-17.411a27.515 27.515 0 003.684-18.578l-3.164-20.11a11.3 11.3 0 014.534-10.938l16.456-11.969a27.514 27.514 0 0010.545-15.76l4.792-19.8a11.303 11.303 0 018.359-8.359l19.8-4.791a27.507 27.507 0 0015.761-10.546l11.966-16.451A11.294 11.294 0 01194 28.948l20.104 3.164a27.504 27.504 0 0018.581-3.684l17.407-10.615a11.307 11.307 0 0111.812 0l17.411 10.616a27.502 27.502 0 0018.579 3.685l20.111-3.164a11.305 11.305 0 0110.938 4.534l11.969 16.455a27.514 27.514 0 0015.76 10.545l19.8 4.792a11.303 11.303 0 018.359 8.359l4.791 19.799a27.51 27.51 0 0010.546 15.763l16.451 11.966a11.297 11.297 0 014.533 10.939l-3.164 20.104a27.515 27.515 0 003.684 18.58l10.615 17.409a11.3 11.3 0 010 11.813z"/><path d="M350.416 168.997c-1.778-5.474-6.433-9.296-12.149-9.974l-48.551-5.757-20.478-44.395c-2.411-5.226-7.484-8.473-13.24-8.473-5.755 0-10.829 3.247-13.24 8.473l-20.478 44.396-48.551 5.757c-5.716.678-10.372 4.5-12.149 9.974-1.778 5.471-.258 11.3 3.966 15.207l35.895 33.195-9.528 47.954c-1.121 5.646 1.075 11.254 5.732 14.636 2.569 1.866 5.55 2.811 8.55 2.811 2.439 0 4.889-.624 7.14-1.884l42.662-23.879 42.662 23.879c5.023 2.812 11.034 2.457 15.691-.926s6.853-8.992 5.731-14.637l-9.528-47.953 35.895-33.195c4.226-3.907 5.746-9.735 3.968-15.209zm-54.134 39.623a8.07 8.07 0 00-2.436 7.496l9.75 49.071-43.658-24.437a8.065 8.065 0 00-7.882 0l-43.658 24.437 9.75-49.071a8.063 8.063 0 00-2.436-7.496l-36.732-33.97 49.686-5.891a8.071 8.071 0 006.377-4.632l20.955-45.431 20.955 45.431a8.07 8.07 0 006.377 4.632l49.684 5.891-36.732 33.97z"/>
    </symbol>
</svg>