<svg xmlns="http://www.w3.org/2000/svg" style="display:none">
    <symbol id="business" viewBox="0 0 512 512">
        <path d="M98.547 122h40c5.52 0 10-4.477 10-10V64c0-5.523-4.48-10-10-10h-40c-5.524 0-10 4.477-10 10v48c0 5.523 4.476 10 10 10zm10-48h20v28h-20zm0 0M178.547 122h40c5.52 0 10-4.477 10-10V64c0-5.523-4.48-10-10-10h-40c-5.524 0-10 4.477-10 10v48c0 5.523 4.476 10 10 10zm10-48h20v28h-20zm0 0M258.547 122h40c5.52 0 10-4.477 10-10V64c0-5.523-4.48-10-10-10h-40c-5.524 0-10 4.477-10 10v48c0 5.523 4.476 10 10 10zm10-48h20v28h-20zm0 0M88.547 200c0 5.523 4.476 10 10 10h40c5.52 0 10-4.477 10-10v-48c0-5.523-4.48-10-10-10h-40c-5.524 0-10 4.477-10 10zm20-38h20v28h-20zm0 0M168.547 200c0 5.523 4.476 10 10 10h40c5.52 0 10-4.477 10-10v-48c0-5.523-4.48-10-10-10h-40c-5.524 0-10 4.477-10 10zm20-38h20v28h-20zm0 0M88.547 288c0 5.523 4.476 10 10 10h40c5.52 0 10-4.477 10-10v-48c0-5.523-4.48-10-10-10h-40c-5.524 0-10 4.477-10 10zm20-38h20v28h-20zm0 0M168.547 288c0 5.523 4.476 10 10 10h40c5.52 0 10-4.477 10-10v-48c0-5.523-4.48-10-10-10h-40c-5.524 0-10 4.477-10 10zm20-38h20v28h-20zm0 0"/><path d="M448 452c-5.586 0-11.137.941-16.387 2.758-10.593-11.184-24.437-18.34-39.613-20.531v-43.555c12.879 9.898 28.844 15.574 45.465 15.574 41.097 0 74.535-33.437 74.535-74.535 0-26.09-13.883-50.352-35.926-63.754.488-3.918.735-7.879.735-11.832 0-52.277-42.532-94.809-94.809-94.809a94.453 94.453 0 00-26.55 3.79V10c0-5.523-4.477-10-10-10h-296c-5.52 0-10 4.477-10 10v182c0 5.523 4.48 10 10 10 5.523 0 10-4.477 10-10V20h276v153.555a95.542 95.542 0 00-26.907 22.699V152c0-5.523-4.477-10-10-10h-40c-5.52 0-10 4.477-10 10v48c0 5.523 4.48 10 10 10h40c.227 0 .45-.02.668-.035A94.39 94.39 0 00290.85 230h-32.308c-5.52 0-10 4.477-10 10v48c0 5.523 4.48 10 10 10h1.59c-4.985 9.793-7.844 20.703-8.106 32H116c-5.523 0-10 4.477-10 10v104H59.453V272c0-5.523-4.48-10-10-10-5.523 0-10 4.477-10 10v172H10c-5.523 0-10 4.477-10 10v48c0 5.523 4.477 10 10 10h478c5.52 0 10-4.477 10-10 0-27.57-22.43-50-50-50zM288.547 190h-20v-28h20zM266 375.113V444h-60v-94h48.277c2.32 9.164 6.356 17.648 11.723 25.113zm20 19.098c11.676 7.598 25.594 12.035 40.535 12.035 3 0 5.973-.203 8.918-.566V444H286zm69.453 6.113A75.467 75.467 0 00372 390.672v43.562a67.977 67.977 0 00-16.547 4.621zM382 181.316c41.25 0 74.809 33.559 74.809 74.809 0 5.117-.52 10.234-1.547 15.215a9.997 9.997 0 005.511 11.062c18.97 8.985 31.227 28.34 31.227 49.309 0 30.07-24.465 54.535-54.535 54.535-18.23 0-35.41-9.305-45.465-24.441v-26.72l36.844-36.843c3.906-3.906 3.906-10.238 0-14.144-3.906-3.903-10.235-3.903-14.14 0L392 306.8v-46c0-5.524-4.477-10-10-10-5.52 0-10 4.476-10 10v24.316l-17.063-17.062c-3.906-3.907-10.234-3.907-14.14 0s-3.906 10.238 0 14.144L372 313.402V361.805c-10.055 15.136-27.234 24.441-45.465 24.441-30.07 0-54.535-24.465-54.535-54.535 0-20.969 12.258-40.324 31.227-49.309a10.009 10.009 0 005.515-11.062 75.428 75.428 0 01-1.55-15.215c0-41.25 33.558-74.809 74.808-74.809zM268.547 250h18.848a96.419 96.419 0 00-.204 6.125c0 3.957.247 7.914.735 11.832A74.128 74.128 0 00274.922 278h-6.375zM126 350h60v94h-60zM20 464h305.04a68.036 68.036 0 00-10.802 28H20zm362 28h-47.465c4.625-21.96 24.149-38.5 47.465-38.5 15.398 0 29.543 7.074 38.805 19.406a10.004 10.004 0 0012.804 2.766A30.017 30.017 0 01448 472c13.035 0 24.16 8.36 28.285 20zm0 0"/><path d="M49.45 242c2.628 0 5.21-1.07 7.07-2.93 1.859-1.86 2.93-4.441 2.93-7.07s-1.071-5.21-2.93-7.07a10.08 10.08 0 00-7.07-2.93 10.08 10.08 0 00-7.071 2.93c-1.86 1.86-2.93 4.441-2.93 7.07s1.07 5.21 2.93 7.07a10.087 10.087 0 007.07 2.93zm0 0"/>
    </symbol>

    <symbol id="badminton" viewBox="0 0 512.023 512.023">
        <path d="M499.488 230.706l-90.048-20.16-9.568-84.352c-.832-7.424-6.656-13.28-14.08-14.08l-82.976-9.376-9.888-88.512c-.512-4.384-2.784-8.384-6.336-11.008-3.52-2.656-7.968-3.776-12.352-2.944l-90.496 16a16.019 16.019 0 00-12.416 10.656L82.016 294.227l-42.592 42.592-11.328 11.328C9.984 366.258 0 390.386 0 416.018c0 25.632 9.984 49.76 28.128 67.872C46.24 502.034 70.368 512.018 96 512.018s49.76-9.984 67.872-28.128l11.328-11.328 42.592-42.592 267.296-89.312a16.116 16.116 0 0010.624-12l16-79.168c1.696-8.511-3.712-16.864-12.224-18.784zm-203.68-96.607l73.696 8.352 8.384 73.728-201.024 144.96-26.016-26.016 144.96-201.024zm-97.152-88l64.352-11.36 8.704 78.08L127.936 312.21l-13.632-13.632 84.352-252.479zM50.752 461.266C38.656 449.17 32 433.107 32 416.018s6.656-33.152 18.752-45.248l90.496 90.496c-24.192 24.192-66.304 24.192-90.496 0zm113.12-22.624l-90.496-90.496L96 325.49l90.528 90.528-22.656 22.624zm302.272-125.376L213.44 397.714l-13.632-13.632 198.56-143.2 78.848 17.632-11.072 54.752z"/>
    </symbol>

    <symbol id="medal" viewBox="0 0 403.954 403.954">
		<path d="M202.002,57.954c-38.7,0-70.2,31.4-70.2,70.2s31.4,70.1,70.2,70.1c38.7-0.1,70.1-31.5,70.2-70.2C272.202,89.354,240.802,57.854,202.002,57.954z M202.002,178.154c-27.7,0-50.1-22.4-50.2-50.1c0-27.7,22.5-50.1,50.2-50.1s50.2,22.5,50.2,50.2S229.702,178.154,202.002,178.154z"/><path d="M367.302,347.354l-58.7-139.1c1.5-1.7,2.8-3.6,3.7-5.7c2.5-5.4,2.6-11.7,0.3-17.2l-10-24.7l22.6-14.1c10.3-6.4,13.3-20,6.9-30.3c-1.8-2.8-4.1-5.2-6.9-6.9l-22.6-14.1l10-24.7c4.5-11.2-0.9-24-12.2-28.5c-3.1-1.2-6.4-1.8-9.7-1.5l-26.6,1.9l-6.4-25.8c-2.9-11.7-14.8-18.9-26.5-16c-3.3,0.8-6.3,2.3-8.9,4.5l-20.3,17.1l-20.4-17.1c-9.2-7.8-23.1-6.6-30.9,2.6c-2.2,2.6-3.7,5.6-4.5,8.9l-6.4,25.8l-26.6-1.9c-12.1-0.8-22.5,8.2-23.4,20.3c-0.2,3.3,0.3,6.6,1.5,9.7l10,24.7l-22.6,14.1c-10.3,6.4-13.4,20-7,30.2c1.8,2.8,4.1,5.2,7,7l22.6,14.1l-10,24.7c-2.3,5.5-2.2,11.7,0.3,17.2c0.9,2.1,2.2,4,3.7,5.7l-58.7,139.1c-2.1,5.1,0.2,11,5.3,13.1c2.5,1.1,5.4,1,7.9,0l63.4-27.7l24.4,64.7c1.4,3.8,5.1,6.4,9.2,6.5h0.2c4,0,7.6-2.4,9.2-6.1l45.8-108.3l45.7,108.3c1.6,3.7,5.2,6.1,9.2,6.1h0.2c4.1-0.1,7.7-2.6,9.2-6.5l24.4-64.7l63.4,27.7c5.1,2.2,11-0.1,13.2-5.2C368.402,352.754,368.402,349.854,367.302,347.354z M147.602,367.054l-19.3-51.2c-2-5.2-7.7-7.8-12.9-5.8c-0.2,0.1-0.3,0.1-0.5,0.2l-50.1,21.9l49.2-116.7l25.8-1.8l6.4,25.9c1.8,7.4,7.3,13.3,14.6,15.6c2.2,0.7,4.5,1.1,6.8,1.1c5.1,0,10.1-1.8,14-5.2l3-2.5l6.5,15.4L147.602,367.054z M168.702,235.654c-0.5,0.4-1.2,0.6-1.8,0.3c-0.6-0.2-1.1-0.7-1.3-1.4l-8.4-34c-1.1-4.5-5.1-7.6-9.7-7.6c-0.2,0-0.5,0-0.7,0l-34.9,2.5c-0.2,0-0.4,0-0.7,0l-0.2-0.1c-0.5-0.2-0.9-0.6-1.1-1c-0.2-0.5-0.2-1,0-1.5l13.1-32.4c1.8-4.5,0.1-9.7-4-12.2l-29.7-18.5c-0.6-0.4-0.9-1-0.9-1.7c0-0.7,0.3-1.3,0.9-1.6l29.7-18.6c4.1-2.6,5.8-7.7,4-12.2l-13.1-32.5c-0.4-1,0.1-2.1,1.1-2.5c0.3-0.1,0.5-0.1,0.8-0.1l35,2.4c4.8,0.3,9.2-2.9,10.4-7.6l8.4-34c0.1-0.7,0.6-1.2,1.3-1.4c0.6-0.2,1.3-0.1,1.8,0.4l26.8,22.6c3.7,3.1,9.2,3.1,12.9,0l26.9-22.6c0.5-0.4,1.2-0.6,1.8-0.4c0.6,0.2,1.1,0.7,1.3,1.4l8.4,34c1.2,4.7,5.6,7.9,10.4,7.6l35-2.4c1.1-0.1,2,0.7,2,1.8c0,0.3,0,0.5-0.1,0.8l-13.1,32.5c-1.8,4.5-0.1,9.7,4,12.2l29.7,18.6c0.6,0.3,0.9,0.9,0.9,1.6c0,0.7-0.3,1.3-0.9,1.7l-29.8,18.5c-4.1,2.6-5.8,7.7-4,12.2l13.2,32.5c0.2,0.5,0.2,1,0,1.5s-0.6,0.9-1.1,1l-0.2,0.1c-0.2,0.1-0.4,0.1-0.7,0l-34.9-2.5c-4.9-0.3-9.2,2.8-10.4,7.6l-8.4,34c-0.2,0.7-0.6,1.2-1.3,1.4c-0.6,0.2-1.3,0.1-1.8-0.4l-26.8-22.6c-3.7-3.1-9.2-3.1-12.9,0L168.702,235.654z M289.002,310.254c-5.1-2.2-11,0.1-13.2,5.2c-0.1,0.2-0.1,0.3-0.2,0.5l-19.3,51.2l-44.7-105.9l-11-26.1l1.4-1.1l20.4,16.9c9.3,7.8,23.1,6.6,30.9-2.7c2.2-2.6,3.7-5.6,4.5-8.8l6.4-25.9l25.8,1.8l49.2,116.6L289.002,310.254z"/>
    </symbol>

    <symbol id="arrow-right" viewBox="0 0 492.004 492.004">
        <path d="M484.14,226.886L306.46,49.202c-5.072-5.072-11.832-7.856-19.04-7.856c-7.216,0-13.972,2.788-19.044,7.856l-16.132,16.136
			c-5.068,5.064-7.86,11.828-7.86,19.04c0,7.208,2.792,14.2,7.86,19.264L355.9,207.526H26.58C11.732,207.526,0,219.15,0,234.002
			v22.812c0,14.852,11.732,27.648,26.58,27.648h330.496L252.248,388.926c-5.068,5.072-7.86,11.652-7.86,18.864
			c0,7.204,2.792,13.88,7.86,18.948l16.132,16.084c5.072,5.072,11.828,7.836,19.044,7.836c7.208,0,13.968-2.8,19.04-7.872
			l177.68-177.68c5.084-5.088,7.88-11.88,7.86-19.1C492.02,238.762,489.228,231.966,484.14,226.886z"/>
    </symbol>

    <symbol id="arrow-left" viewBox="0 0 447.243 447.243">
        <path d="M420.361,192.229c-1.83-0.297-3.682-0.434-5.535-0.41H99.305l6.88-3.2c6.725-3.183,12.843-7.515,18.08-12.8l88.48-88.48
			c11.653-11.124,13.611-29.019,4.64-42.4c-10.441-14.259-30.464-17.355-44.724-6.914c-1.152,0.844-2.247,1.764-3.276,2.754
			l-160,160C-3.119,213.269-3.13,233.53,9.36,246.034c0.008,0.008,0.017,0.017,0.025,0.025l160,160
			c12.514,12.479,32.775,12.451,45.255-0.063c0.982-0.985,1.899-2.033,2.745-3.137c8.971-13.381,7.013-31.276-4.64-42.4
			l-88.32-88.64c-4.695-4.7-10.093-8.641-16-11.68l-9.6-4.32h314.24c16.347,0.607,30.689-10.812,33.76-26.88
			C449.654,211.494,437.806,195.059,420.361,192.229z"/>
    </symbol>

	<symbol id="arrow-up" viewBox="0 0 492.002 492.002">
		<path d="M484.136,328.473L264.988,109.329c-5.064-5.064-11.816-7.844-19.172-7.844c-7.208,0-13.964,2.78-19.02,7.844
			L7.852,328.265C2.788,333.333,0,340.089,0,347.297c0,7.208,2.784,13.968,7.852,19.032l16.124,16.124
			c5.064,5.064,11.824,7.86,19.032,7.86s13.964-2.796,19.032-7.86l183.852-183.852l184.056,184.064
			c5.064,5.06,11.82,7.852,19.032,7.852c7.208,0,13.96-2.792,19.028-7.852l16.128-16.132
			C494.624,356.041,494.624,338.965,484.136,328.473z"/>
	</symbol>
    
    <symbol id="home" viewBox="0 0 512 512">
        <path d="M503.401,228.884l-43.253-39.411V58.79c0-8.315-6.741-15.057-15.057-15.057H340.976c-8.315,0-15.057,6.741-15.057,15.057
			v8.374l-52.236-47.597c-10.083-9.189-25.288-9.188-35.367-0.001L8.598,228.885c-8.076,7.36-10.745,18.7-6.799,28.889
			c3.947,10.189,13.557,16.772,24.484,16.772h36.689v209.721c0,8.315,6.741,15.057,15.057,15.057h125.913
			c8.315,0,15.057-6.741,15.057-15.057V356.931H293v127.337c0,8.315,6.741,15.057,15.057,15.057h125.908
			c8.315,0,15.057-6.741,15.056-15.057V274.547h36.697c10.926,0,20.537-6.584,24.484-16.772
			C514.147,247.585,511.479,236.245,503.401,228.884z M433.965,244.433c-8.315,0-15.057,6.741-15.057,15.057v209.721h-95.793
			V341.874c0-8.315-6.742-15.057-15.057-15.057H203.942c-8.315,0-15.057,6.741-15.057,15.057v127.337h-95.8V259.49
			c0-8.315-6.741-15.057-15.057-15.057H36.245l219.756-200.24l74.836,68.191c4.408,4.016,10.771,5.051,16.224,2.644
			c5.454-2.41,8.973-7.812,8.973-13.774V73.847h74.002v122.276c0,4.237,1.784,8.276,4.916,11.13l40.803,37.18H433.965z"/>
    </symbol>

    <symbol id="overons" viewBox="0 0 512 512">
        <path d="M437,268.152h-50.118c-6.821,0-13.425,0.932-19.71,2.646c-12.398-24.372-37.71-41.118-66.877-41.118h-88.59
			c-29.167,0-54.479,16.746-66.877,41.118c-6.285-1.714-12.889-2.646-19.71-2.646H75c-41.355,0-75,33.645-75,75v80.118
			c0,24.813,20.187,45,45,45h422c24.813,0,45-20.187,45-45v-80.118C512,301.797,478.355,268.152,437,268.152z M136.705,304.682
			v133.589H45c-8.271,0-15-6.729-15-15v-80.118c0-24.813,20.187-45,45-45h50.118c4.072,0,8.015,0.553,11.769,1.572
			C136.779,301.366,136.705,303.016,136.705,304.682z M345.295,438.271h-178.59V304.681c0-24.813,20.187-45,45-45h88.59
			c24.813,0,45,20.187,45,45V438.271z M482,423.271c0,8.271-6.729,15-15,15h-91.705v-133.59c0-1.667-0.074-3.317-0.182-4.957
			c3.754-1.018,7.697-1.572,11.769-1.572H437c24.813,0,45,20.187,45,45V423.271z"/>
        <path d="M100.06,126.504c-36.749,0-66.646,29.897-66.646,66.646c-0.001,36.749,29.897,66.646,66.646,66.646
			c36.748,0,66.646-29.897,66.646-66.646C166.706,156.401,136.809,126.504,100.06,126.504z M100.059,229.796
			c-20.207,0-36.646-16.439-36.646-36.646c0-20.207,16.439-36.646,36.646-36.646c20.207,0,36.646,16.439,36.646,36.646
			C136.705,213.357,120.266,229.796,100.059,229.796z"/>
        <path d="M256,43.729c-49.096,0-89.038,39.942-89.038,89.038c0,49.096,39.942,89.038,89.038,89.038s89.038-39.942,89.038-89.038
			C345.038,83.672,305.096,43.729,256,43.729z M256,191.805c-32.554,0-59.038-26.484-59.038-59.038
			c0-32.553,26.484-59.038,59.038-59.038s59.038,26.484,59.038,59.038C315.038,165.321,288.554,191.805,256,191.805z"/>
        <path d="M411.94,126.504c-36.748,0-66.646,29.897-66.646,66.646c0.001,36.749,29.898,66.646,66.646,66.646
			c36.749,0,66.646-29.897,66.646-66.646C478.586,156.401,448.689,126.504,411.94,126.504z M411.94,229.796
			c-20.206,0-36.646-16.439-36.646-36.646c0.001-20.207,16.44-36.646,36.646-36.646c20.207,0,36.646,16.439,36.646,36.646
			C448.586,213.357,432.147,229.796,411.94,229.796z"/>
    </symbol>

    <symbol id="praktischezaken" viewBox="0 0 512 512">
        <path d="M256.002,182.774c-12.718,0-21.761,5.37-21.761,13.283V303.73c0,6.782,9.044,13.565,21.761,13.565
				c12.152,0,22.043-6.783,22.043-13.565V196.057C278.045,188.144,268.154,182.774,256.002,182.774z"/>
			<path d="M256.002,116.361c-13,0-23.174,9.326-23.174,20.065c0,10.739,10.174,20.348,23.174,20.348
				c12.718,0,22.892-9.609,22.892-20.348C278.894,125.688,268.719,116.361,256.002,116.361z"/>
			<path d="M256,0C134.398,0,36,98.348,36,219.873c0,99.231,65.333,181.626,153.417,209.609l50.032,73.747
				C243.171,508.715,249.37,512,256,512s12.829-3.285,16.551-8.771l50.032-73.747C410.706,401.486,476,319.061,476,219.873
				C476,98.271,377.523,0,256,0z M304.645,393.099c-4.555,1.274-8.51,4.12-11.165,8.033L256,456.376l-37.479-55.243
				c-2.656-3.913-6.611-6.76-11.166-8.033C132.377,372.135,76,303.181,76,219.873C76,120.69,156.748,40,256,40
				s180,80.69,180,179.873C436,303.264,379.54,372.158,304.645,393.099z"/>
    </symbol>

    <symbol id="reserveren" viewBox="0 0 512 512">
        <polygon points="448,48 448,0 416,0 416,48 96,48 96,0 64,0 64,48 0,48 0,512 352,512 352,480 32,480 32,160 96,160 96,128 32,128 32,80 480,80 480,128 192,128 192,160 480,160 480,416 512,416 512,48"/>
        <rect x="384" y="480" width="32" height="32"/>
        <rect x="128" y="128" width="32" height="32"/>
        <path d="M176,208H80v96h96V208z M144,272h-32v-32h32V272z"/>
        <polygon points="304,208 208,208 208,304 240,304 240,240 304,240 			"/>
        <path d="M80,432h96v-96H80V432z M112,368h32v32h-32V368z"/>
        <path d="M448,352c0.167-53.187-42.814-96.439-96.001-96.606c-53.187-0.167-96.439,42.814-96.606,96.001c-0.167,53.187,42.814,96.439,96.001,96.606c20.118,0.063,39.751-6.176,56.142-17.841l77.152,77.152l22.624-22.624l-77.152-77.152C441.761,391.341,447.999,371.921,448,352z M352,416c-35.346,0-64-28.654-64-64c0-35.346,28.654-64,64-64c35.346,0,64,28.654,64,64C416,387.346,387.346,416,352,416z"/>
    </symbol>

    <symbol id="contact" viewBox="0 0 24 24">
        <path d="M12 2c5.514 0 10 4.486 10 10s-4.486 10-10 10-10-4.486-10-10 4.486-10 10-10zm0-2c-6.627 0-12 5.373-12 12s5.373 12 12 12 12-5.373 12-12-5.373-12-12-12zm4.5 17.311l-1.76-3.397-1.032.505c-1.12.543-3.4-3.91-2.305-4.497l1.042-.513-1.747-3.409-1.053.52c-3.601 1.877 2.117 12.991 5.8 11.308l1.055-.517z"/>
    </symbol>

    <symbol id="warning" viewBox="0 0 486.463 486.463">
        <path d="M243.225,333.382c-13.6,0-25,11.4-25,25s11.4,25,25,25c13.1,0,25-11.4,24.4-24.4C268.225,344.682,256.925,333.382,243.225,333.382z"/>
		<path d="M474.625,421.982c15.7-27.1,15.8-59.4,0.2-86.4l-156.6-271.2c-15.5-27.3-43.5-43.5-74.9-43.5s-59.4,16.3-74.9,43.4l-156.8,271.5c-15.6,27.3-15.5,59.8,0.3,86.9c15.6,26.8,43.5,42.9,74.7,42.9h312.8C430.725,465.582,458.825,449.282,474.625,421.982z M440.625,402.382c-8.7,15-24.1,23.9-41.3,23.9h-312.8c-17,0-32.3-8.7-40.8-23.4c-8.6-14.9-8.7-32.7-0.1-47.7l156.8-271.4c8.5-14.9,23.7-23.7,40.9-23.7c17.1,0,32.4,8.9,40.9,23.8l156.7,271.4C449.325,369.882,449.225,387.482,440.625,402.382z"/>
		<path d="M237.025,157.882c-11.9,3.4-19.3,14.2-19.3,27.3c0.6,7.9,1.1,15.9,1.7,23.8c1.7,30.1,3.4,59.6,5.1,89.7c0.6,10.2,8.5,17.6,18.7,17.6c10.2,0,18.2-7.9,18.7-18.2c0-6.2,0-11.9,0.6-18.2c1.1-19.3,2.3-38.6,3.4-57.9c0.6-12.5,1.7-25,2.3-37.5c0-4.5-0.6-8.5-2.3-12.5C260.825,160.782,248.925,155.082,237.025,157.882z"/>
    </symbol>

	<symbol id="confirm" viewBox="0 0 384 384">
		<path d="M275.312,140.688c-6.24-6.248-16.384-6.248-22.624,0L184,209.368l-28.688-28.68c-6.24-6.248-16.384-6.248-22.624,0c-6.248,6.248-6.248,16.376,0,22.624l40,40C175.808,246.44,179.904,248,184,248s8.192-1.56,11.312-4.688l80-80C281.56,157.064,281.56,146.936,275.312,140.688z"/>
		<path d="M368,176c-8.832,0-16,7.168-16,16c0,88.224-71.776,160-160,160S32,280.224,32,192S103.776,32,192,32c42.952,0,83.272,16.784,113.544,47.264c6.216,6.28,16.352,6.312,22.624,0.08c6.272-6.224,6.304-16.352,0.08-22.624C291.928,20.144,243.536,0,192,0C86.128,0,0,86.128,0,192s86.128,192,192,192s192-86.128,192-192C384,183.168,376.832,176,368,176z"/>
	</symbol>

	<symbol id="court" viewBox="0 0 512 512">
			<path d="M0,512h512V0H0V512z M282.582,482h-127.28l-32.385-32.385l63.64-63.64L282.582,482z M165.344,322.336l64.14-64.14   L453.287,482h-128.28L165.344,322.336z M293.123,279.41l64.14-64.14L482,340.007v128.28L293.123,279.41z M482,297.582   L336.049,151.631l63.64-63.64L482,170.302V297.582z M314.836,130.418L214.418,30h127.28l36.778,36.778L314.836,130.418z    M336.05,194.057l-64.14,64.14L43.713,30h128.28L336.05,194.057z M208.271,236.983l-64.14,64.14L30,186.993V58.713L208.271,236.983   z M165.344,364.763l-63.64,63.64L30,356.698v-127.28L165.344,364.763z M30,399.124L112.876,482H30V399.124z M482,127.876   L384.124,30H482V127.876z"/>
			<rect x="87.204" y="349.263" transform="matrix(-0.7071 0.7071 -0.7071 -0.7071 432.0442 549.5697)" width="30" height="30"/>
			<rect x="172.057" y="434.115" transform="matrix(-0.7071 0.7071 -0.7071 -0.7071 636.9012 634.4135)" width="30" height="30"/>
			<rect x="129.631" y="221.983" transform="matrix(-0.7071 0.7071 -0.7071 -0.7071 414.4717 302.2898)" width="30" height="30"/>
			<rect x="214.484" y="306.836" transform="matrix(0.7071 -0.7071 0.7071 0.7071 -160.3583 256.5331)" width="30" height="30"/>
			<rect x="299.336" y="52.278" transform="matrix(0.7071 -0.7071 0.7071 0.7071 44.4923 241.9714)" width="30" height="30"/>
			<rect x="384.189" y="137.13" transform="matrix(-0.7071 -0.7071 0.7071 -0.7071 573.886 541.9726)" width="30" height="30"/>
			<rect x="256.91" y="179.557" transform="matrix(-0.7071 0.7071 -0.7071 -0.7071 601.7526 139.8642)" width="30" height="30"/>
			<rect x="341.763" y="264.41" transform="matrix(0.7071 -0.7071 0.7071 0.7071 -93.0786 334.1118)" width="30" height="30"/>
	</symbol>

	<symbol id="light" viewBox="0 -42 512 512">
		<path d="m496.074219 128.472656c-22.117188 0-461.488281 0-480.148438 0-8.792969 0-15.925781 7.136719-15.925781 15.925782v140.144531c0 8.792969 7.132812 15.925781 15.925781 15.925781h480.148438c8.792969 0 15.925781-7.132812 15.925781-15.925781v-140.144531c0-8.789063-7.132812-15.925782-15.925781-15.925782zm-15.925781 140.144532h-35.164063v-108.292969h35.164063zm-448.296876-108.292969h35.164063v108.292969h-35.164063zm67.015626 0h314.265624v108.292969h-314.265624zm0 0"/><path d="m169.789062 62.378906c7.703126 19.628906 37.390626 8.085938 29.652344-11.636718l-15.945312-40.628907c-7.683594-19.585937-37.347656-7.980469-29.648438 11.636719zm0 0"/><path d="m271.925781 56.5625v-40.632812c0-21.042969-31.851562-21.066407-31.851562 0v40.632812c0 21.042969 31.851562 21.0625 31.851562 0zm0 0"/><path d="m342.210938 62.378906 15.941406-40.628906c7.6875-19.585938-21.953125-31.253906-29.648438-11.636719l-15.945312 40.628907c-7.71875 19.671874 21.964844 31.226562 29.652344 11.636718zm0 0"/><path d="m342.210938 366.566406c-7.683594-19.589844-37.347657-7.984375-29.652344 11.632813l15.945312 40.628906c7.699219 19.632813 37.386719 8.089844 29.648438-11.632813zm0 0"/><path d="m240.074219 372.382812v40.628907c0 21.042969 31.851562 21.066406 31.851562 0v-40.628907c0-21.042968-31.851562-21.066406-31.851562 0zm0 0"/><path d="m169.789062 366.566406-15.941406 40.628906c-7.71875 19.667969 21.964844 31.222657 29.648438 11.632813l15.945312-40.628906c7.683594-19.585938-21.957031-31.25-29.652344-11.632813zm0 0"/><path d="m353.285156 198.546875h-194.570312c-21.035156 0-21.074219 31.851563 0 31.851563h194.570312c21.035156 0 21.074219-31.851563 0-31.851563zm0 0"/>
	</symbol>
</svg>