<svg id="Logo_normal_copy" data-name="Logo normal copy" xmlns="http://www.w3.org/2000/svg" viewBox="0 0 501.88 501.86"><defs><style>.cls-1{fill:#2660c3;}.cls-2{fill:#07b1b4;}</style></defs><title>sporezo-logo-small-normal</title><path class="cls-1" d="M198.32,466.2a252,252,0,0,0,0,149.6l74.8-74.8Z" transform="translate(-186.96 -290.07)"/><path class="cls-2" d="M301.64,512.48l211.05-211A251.22,251.22,0,0,0,214.86,425.86a12.29,12.29,0,0,1,1.22,1.07Z" transform="translate(-186.96 -290.07)"/><path class="cls-1" d="M615.34,363.55A250.71,250.71,0,0,0,553,318a13.54,13.54,0,0,1-1.07,1.22L330.16,541,552,762.81A13.54,13.54,0,0,1,553,764a250.71,250.71,0,0,0,62.31-45.58C713.34,620.45,713.34,461.55,615.34,363.55ZM597.12,640.42a89.36,89.36,0,0,1-37,7.5q-21.6,0-38.4-6t-32.1-19.8a15.22,15.22,0,0,1-4.95-5.85,16.18,16.18,0,0,1-1.65-7,14.51,14.51,0,0,1,4.2-10.2,13.77,13.77,0,0,1,10.5-4.5,14.34,14.34,0,0,1,9,3.3,85.63,85.63,0,0,0,23.85,15.9q12.43,5.4,29.25,5.4a60.49,60.49,0,0,0,22.05-3.9,41.62,41.62,0,0,0,16-10.5,22.05,22.05,0,0,0,6-15.3q0-10.8-6.15-17.85T580,559.87a161.09,161.09,0,0,0-27.75-8,135.49,135.49,0,0,1-26.85-7.5,70.8,70.8,0,0,1-20.25-12.15,49.71,49.71,0,0,1-12.9-17.55q-4.5-10.2-4.5-23.7,0-18.3,9.6-31.5t26.1-20.4q16.49-7.2,37.2-7.2a105.17,105.17,0,0,1,35.4,5.85q16.48,5.85,26.7,15.75,7.2,6.3,7.2,13.5a14.48,14.48,0,0,1-4.35,10.05,13.41,13.41,0,0,1-10,4.65,11.15,11.15,0,0,1-7.2-2.4,45.37,45.37,0,0,0-12.9-9.15,104.81,104.81,0,0,0-17.25-6.75,62,62,0,0,0-17.55-2.7q-13.5,0-23.1,3.75t-14.7,10.2a23.65,23.65,0,0,0-5.1,15.15q0,10.2,5.85,16.8T540,517.27a197.08,197.08,0,0,0,24,7.35,263.85,263.85,0,0,1,29.55,8.1,75.21,75.21,0,0,1,22.05,11.55,46.54,46.54,0,0,1,13.8,17.55q4.78,10.5,4.8,26.1,0,18-10.2,31.5A67.84,67.84,0,0,1,597.12,640.42Z" transform="translate(-186.96 -290.07)"/><path class="cls-2" d="M216.08,655.07a12.29,12.29,0,0,1-1.22,1.07A251.22,251.22,0,0,0,512.69,780.57L301.64,569.52Z" transform="translate(-186.96 -290.07)"/></svg>