<svg id="Logo_white" data-name="Logo white" xmlns="http://www.w3.org/2000/svg" viewBox="0 0 1468.52 501.86"><defs><style>.cls-1{fill:#fff;}.cls-2{fill:#07b1b4;}</style></defs><title>sporezo-logo</title><path class="cls-1" d="M785.79,461.27q21,0,37.35,10.5a74.94,74.94,0,0,1,26,28.65q9.6,18.15,9.6,42.15T849.09,585a74.84,74.84,0,0,1-25.8,29,65.82,65.82,0,0,1-36.6,10.5,64.42,64.42,0,0,1-21.6-3.6,66.84,66.84,0,0,1-18-9.45A63,63,0,0,1,734.34,599q-5-6.59-6.15-12.3l8.1-3.9v83.7a14.85,14.85,0,0,1-4.35,10.95,15.4,15.4,0,0,1-21.45,0,15.13,15.13,0,0,1-4.2-10.95V478.67a15.27,15.27,0,0,1,4.2-10.8,15,15,0,0,1,21.45,0,15,15,0,0,1,4.35,10.8v20.7l-4.8-2.7c.6-3.79,2.5-7.75,5.7-11.85a61.56,61.56,0,0,1,12.15-11.55,63.55,63.55,0,0,1,16.8-8.7A59.17,59.17,0,0,1,785.79,461.27Zm-3.3,27.6q-14.4,0-25,7.05A48.26,48.26,0,0,0,740.79,515q-6,12-6,27.6a63.06,63.06,0,0,0,6,27.75,47.47,47.47,0,0,0,16.65,19.5q10.65,7,25,7,14.1,0,24.6-7a49,49,0,0,0,16.65-19.5,61.77,61.77,0,0,0,6.15-27.75,59.93,59.93,0,0,0-6.15-27.45,49.53,49.53,0,0,0-16.65-19.2Q796.59,488.89,782.49,488.87Z" transform="translate(-186.96 -290.07)"/><path class="cls-1" d="M1041.09,542.87q0,24-10.65,42.45a78,78,0,0,1-28.65,28.95q-18,10.51-40.5,10.5a79,79,0,0,1-40.35-10.5,77.69,77.69,0,0,1-28.8-28.95q-10.65-18.45-10.65-42.45,0-24.3,10.65-42.75a78.55,78.55,0,0,1,69.15-39.75q22.5,0,40.5,10.65a79.19,79.19,0,0,1,28.65,29.1Q1041.09,518.57,1041.09,542.87Zm-30,0q0-16.49-6.6-28.65A50.81,50.81,0,0,0,986.64,495a46.83,46.83,0,0,0-25.35-7,46.3,46.3,0,0,0-25,7,52,52,0,0,0-18,19.2q-6.75,12.15-6.75,28.65,0,15.9,6.75,28.2a50.43,50.43,0,0,0,18,19.2,46.88,46.88,0,0,0,25,6.9,47.42,47.42,0,0,0,25.35-6.9,49.32,49.32,0,0,0,17.85-19.2Q1011.09,558.77,1011.09,542.87Z" transform="translate(-186.96 -290.07)"/><path class="cls-1" d="M1088.49,621.77a14.32,14.32,0,0,1-10.8-4.35,15.07,15.07,0,0,1-4.2-10.95V479.27a15.11,15.11,0,0,1,4.2-10.95,14.36,14.36,0,0,1,10.8-4.35,14.54,14.54,0,0,1,10.65,4.35,14.9,14.9,0,0,1,4.35,10.95v33.6l-3-12.9a53,53,0,0,1,7.35-15.6,56.47,56.47,0,0,1,11.85-12.6,54.08,54.08,0,0,1,33.3-11.4,22.17,22.17,0,0,1,13.5,4.2c3.79,2.81,5.7,6.3,5.7,10.5q0,8.1-4.2,11.85a13.64,13.64,0,0,1-9.3,3.75,20.44,20.44,0,0,1-8.7-1.95,23.38,23.38,0,0,0-9.9-2,28.7,28.7,0,0,0-12.9,3.3,37.69,37.69,0,0,0-12,9.75,49.84,49.84,0,0,0-8.55,15.15,57,57,0,0,0-3.15,19.5v72a14.87,14.87,0,0,1-4.35,10.95A14.5,14.5,0,0,1,1088.49,621.77Z" transform="translate(-186.96 -290.07)"/><path class="cls-1" d="M1264.29,624.77q-24.6,0-43-10.35a72.27,72.27,0,0,1-28.5-28.5q-10-18.15-10-41.55,0-26.4,10.65-45.15t27.9-28.8a71.3,71.3,0,0,1,36.45-10.05,68.43,68.43,0,0,1,27.75,5.85,75.06,75.06,0,0,1,23.55,16.2,78.34,78.34,0,0,1,16.2,24.3,80,80,0,0,1,6.3,30.45,13.46,13.46,0,0,1-4.8,9.9,15.54,15.54,0,0,1-10.5,3.9h-116.4l-7.2-25.5h112.8l-5.7,5.4v-7.5a33.66,33.66,0,0,0-7.2-18.45,43.15,43.15,0,0,0-15.45-12.3,44.66,44.66,0,0,0-19.35-4.35,53.79,53.79,0,0,0-17.4,2.85,37.62,37.62,0,0,0-14.7,9.15,46.18,46.18,0,0,0-10.2,16.65q-3.9,10.35-3.9,25.65,0,16.5,6.9,28.8a49.31,49.31,0,0,0,18.6,19,51.28,51.28,0,0,0,26.1,6.75,61.25,61.25,0,0,0,18-2.25,44.33,44.33,0,0,0,12-5.55q4.8-3.3,8.4-6.3a18.5,18.5,0,0,1,9-2.7,12,12,0,0,1,9,3.75,12.37,12.37,0,0,1,3.6,8.85q0,6.6-6.6,12-8.1,7.81-22.35,13.8A76.16,76.16,0,0,1,1264.29,624.77Z" transform="translate(-186.96 -290.07)"/><path class="cls-1" d="M1464.09,594.17a13.94,13.94,0,0,1,10.05,3.9,13.15,13.15,0,0,1,4,9.9,13.29,13.29,0,0,1-4,9.75,13.66,13.66,0,0,1-10.05,4h-96.9a12.66,12.66,0,0,1-10.2-4.65c-2.61-3.1-3.8-6.15-3.6-9.15a37,37,0,0,1,1-6.45,17.55,17.55,0,0,1,3.75-6.45l80.1-106.2v3.6h-66.9a13.63,13.63,0,0,1-10.05-4.05,13.29,13.29,0,0,1-4-9.75,13.15,13.15,0,0,1,4-9.9,14,14,0,0,1,10.05-3.9h92.4a12.9,12.9,0,0,1,9.75,4.35,13.13,13.13,0,0,1,3.45,10.65,18.82,18.82,0,0,1-.75,5.25,17.67,17.67,0,0,1-3.45,5.85l-78.9,105-1.2-1.8Z" transform="translate(-186.96 -290.07)"/><path class="cls-1" d="M1655.49,542.87q0,24-10.65,42.45a78,78,0,0,1-28.65,28.95q-18,10.51-40.5,10.5a79,79,0,0,1-40.35-10.5,77.54,77.54,0,0,1-28.8-28.95q-10.65-18.45-10.65-42.45,0-24.3,10.65-42.75a78.55,78.55,0,0,1,69.15-39.75q22.5,0,40.5,10.65a79.19,79.19,0,0,1,28.65,29.1Q1655.48,518.57,1655.49,542.87Zm-30,0q0-16.49-6.6-28.65A50.81,50.81,0,0,0,1601,495a46.83,46.83,0,0,0-25.35-7,46.3,46.3,0,0,0-25,7,52,52,0,0,0-18,19.2q-6.75,12.15-6.75,28.65,0,15.9,6.75,28.2a50.43,50.43,0,0,0,18,19.2,46.88,46.88,0,0,0,25,6.9,47.42,47.42,0,0,0,25.35-6.9,49.32,49.32,0,0,0,17.85-19.2Q1625.48,558.77,1625.49,542.87Z" transform="translate(-186.96 -290.07)"/><path class="cls-1" d="M198.32,466.2a252,252,0,0,0,0,149.6l74.8-74.8Z" transform="translate(-186.96 -290.07)"/><path class="cls-2" d="M301.64,512.48l211.05-211A251.22,251.22,0,0,0,214.86,425.86a12.29,12.29,0,0,1,1.22,1.07Z" transform="translate(-186.96 -290.07)"/><path class="cls-1" d="M615.34,363.55A250.71,250.71,0,0,0,553,318a13.54,13.54,0,0,1-1.07,1.22L330.16,541,552,762.81A13.54,13.54,0,0,1,553,764a250.71,250.71,0,0,0,62.31-45.58C713.34,620.45,713.34,461.55,615.34,363.55ZM597.12,640.42a89.36,89.36,0,0,1-37,7.5q-21.6,0-38.4-6t-32.1-19.8a15.22,15.22,0,0,1-4.95-5.85,16.18,16.18,0,0,1-1.65-7,14.51,14.51,0,0,1,4.2-10.2,13.77,13.77,0,0,1,10.5-4.5,14.34,14.34,0,0,1,9,3.3,85.63,85.63,0,0,0,23.85,15.9q12.43,5.4,29.25,5.4a60.49,60.49,0,0,0,22.05-3.9,41.62,41.62,0,0,0,16-10.5,22.05,22.05,0,0,0,6-15.3q0-10.8-6.15-17.85T580,559.87a161.09,161.09,0,0,0-27.75-8,135.49,135.49,0,0,1-26.85-7.5,70.8,70.8,0,0,1-20.25-12.15,49.71,49.71,0,0,1-12.9-17.55q-4.5-10.2-4.5-23.7,0-18.3,9.6-31.5t26.1-20.4q16.49-7.2,37.2-7.2a105.17,105.17,0,0,1,35.4,5.85q16.48,5.85,26.7,15.75,7.2,6.3,7.2,13.5a14.48,14.48,0,0,1-4.35,10.05,13.41,13.41,0,0,1-10,4.65,11.15,11.15,0,0,1-7.2-2.4,45.37,45.37,0,0,0-12.9-9.15,104.81,104.81,0,0,0-17.25-6.75,62,62,0,0,0-17.55-2.7q-13.5,0-23.1,3.75t-14.7,10.2a23.65,23.65,0,0,0-5.1,15.15q0,10.2,5.85,16.8T540,517.27a197.08,197.08,0,0,0,24,7.35,263.85,263.85,0,0,1,29.55,8.1,75.21,75.21,0,0,1,22.05,11.55,46.54,46.54,0,0,1,13.8,17.55q4.78,10.5,4.8,26.1,0,18-10.2,31.5A67.84,67.84,0,0,1,597.12,640.42Z" transform="translate(-186.96 -290.07)"/><path class="cls-2" d="M216.08,655.07a12.29,12.29,0,0,1-1.22,1.07A251.22,251.22,0,0,0,512.69,780.57L301.64,569.52Z" transform="translate(-186.96 -290.07)"/></svg>