<svg xmlns="http://www.w3.org/2000/svg" width="129" height="129" viewBox="0 0 129 129">
  <g id="Number" transform="translate(-140 -1897)">
    <path id="Path_52" data-name="Path 52" d="M64.5,0A64.5,64.5,0,1,1,0,64.5,64.5,64.5,0,0,1,64.5,0Z" transform="translate(140 1897)" fill="#07b1b4"/>
    <g id="user_2_" data-name="user (2)" transform="translate(137.555 1924.39)">
      <path id="Path_50" data-name="Path 50" d="M156.217,36.87a18.435,18.435,0,1,1,18.435-18.435A18.456,18.456,0,0,1,156.217,36.87Zm0-32.261a13.826,13.826,0,1,0,13.826,13.826A13.841,13.841,0,0,0,156.217,4.609Z" transform="translate(-89.511)" fill="#fff"/>
      <path id="Path_51" data-name="Path 51" d="M96.663,343.284H36.749a2.3,2.3,0,0,1-2.3-2.3V325.116a6.911,6.911,0,0,1,3.175-5.842c17.305-10.8,40.882-10.793,58.17,0a6.914,6.914,0,0,1,3.178,5.844v15.863A2.3,2.3,0,0,1,96.663,343.284Zm-57.609-4.609h55.3V325.116a2.273,2.273,0,0,0-1.01-1.935c-15.822-9.877-37.451-9.884-53.286,0a2.27,2.27,0,0,0-1.008,1.933Z" transform="translate(0 -269.544)" fill="#fff"/>
    </g>
  </g>
</svg>
